#N canvas 605 380 643 495 12;
#X obj 116 48 netreceive -u -b 9001;
#X obj 116 73 oscparse;
#X obj 116 98 list trim;
#X obj 116 123 route beat;
#X obj 116 148 sel 1;
#X msg 116 173 880;
#X obj 116 198 phasor~;
#X obj 142 229 *~ -1;
#X obj 142 254 +~ 1;
#X obj 117 288 min~;
#X obj 117 313 *~ 4;
#X obj 117 338 -~ 1;
#X obj 117 373 output~;
#X msg 148 173 440;
#X connect 0 0 1 0;
#X connect 1 0 2 0;
#X connect 2 0 3 0;
#X connect 3 0 4 0;
#X connect 4 0 5 0;
#X connect 4 1 13 0;
#X connect 5 0 6 0;
#X connect 6 0 7 0;
#X connect 6 0 9 0;
#X connect 7 0 8 0;
#X connect 8 0 9 1;
#X connect 9 0 10 0;
#X connect 10 0 11 0;
#X connect 11 0 12 0;
#X connect 11 0 12 1;
#X connect 13 0 6 0;
